# xmcd
#
# Track frame offsets: 
#        150
#        15100
#        34130
#        52119
#        63851
#        82150
#        94197
#        108210
#        124704
#        138709
#        154041
#        170956
#
# Disc length: 2502 seconds
#
# Revision: 0
# Processed by: cddbd v1.5.2PL0 Copyright (c) Steve Scherf et al.
# Submitted via: ExactAudioCopyFreeDBPlugin 1.0
#
DISCID=9e09c40c
DTITLE=Speaker First - Dunia Milik Kita
DYEAR=2009
DGENRE=Blues Rock
TTITLE0=Dunia Milik Kita
TTITLE1=Monalisa
TTITLE2=Sentuh Dalam Mimpi
TTITLE3=Patroli
TTITLE4=Lagu Terakhir
TTITLE5=Ini 2007
TTITLE6=Fire Inside
TTITLE7=Speak Yeah
TTITLE8=Dia
TTITLE9=Sendiri Lagi
TTITLE10=Apakah Bisa
TTITLE11=Sinar Cahaya
EXTD=
EXTT0=
EXTT1=
EXTT2=
EXTT3=
EXTT4=
EXTT5=
EXTT6=
EXTT7=
EXTT8=
EXTT9=
EXTT10=
EXTT11=
PLAYORDER=
